<svg
  viewBox="0 0 187 32"
  height="64px"
  width="374px"
  fill="none"
  xmlns="http://www.w3.org/2000/svg"
>
  <path
    fill="#222222"
    d="M49 18.9V21h-8.7V9.7H49v2.1h-6v2.4h5.3v2h-5.3V19h6.2zM66.4 21l-2.8-4-2.7 4h-3l4.2-5.7-4-5.6h3l2.6 3.7 2.6-3.7H69l-4 5.5 4.3 5.8h-3zm17-11.3c1 0 1.8.2 2.6.5.7.3 1.3.8 1.7 1.4.4.6.6 1.4.6 2.2a4 4 0 01-.6 2.2c-.4.6-1 1-1.7 1.4-.8.3-1.6.5-2.6.5H81V21h-2.6V9.7h4.9zm-.2 6c.8 0 1.4-.1 1.8-.4.4-.4.6-.9.6-1.5s-.2-1.1-.6-1.5c-.4-.3-1-.5-1.8-.5H81v4H83zm15-6h2.6v9.2h5.7V21h-8.3V9.7zm23.1 11.5c-1.1 0-2.2-.3-3.2-.8-.9-.5-1.6-1.2-2.2-2-.5-1-.8-2-.8-3a5.7 5.7 0 013-5.1c1-.5 2-.8 3.2-.8 1.2 0 2.3.3 3.2.8a5.7 5.7 0 013 5 5.7 5.7 0 01-3 5.1c-1 .5-2 .8-3.2.8zm0-2.2c.7 0 1.3-.2 1.8-.5.6-.3 1-.7 1.3-1.3.3-.5.5-1.2.5-1.9s-.2-1.3-.5-1.8c-.3-.6-.7-1-1.3-1.3-.5-.3-1.1-.5-1.8-.5a3.5 3.5 0 00-3 1.8c-.4.5-.5 1.1-.5 1.8s.1 1.4.4 2a3.4 3.4 0 003.1 1.7zm23.5 2l-2.2-3.1H140V21h-2.6V9.7h4.8c1 0 2 .2 2.6.5.8.3 1.4.8 1.8 1.4.4.6.6 1.4.6 2.2 0 .8-.3 1.6-.7 2.2-.4.6-1 1-1.7 1.4l2.6 3.6h-2.8zm0-7.2c0-.6-.3-1.1-.7-1.5-.4-.3-1-.5-1.8-.5h-2.1v4h2.1c.8 0 1.4-.2 1.8-.5.4-.4.6-.9.6-1.5zm21.5 5.1V21h-8.8V9.7h8.5v2.1H160v2.4h5.2v2H160V19h6.2zm17.3 2.1l-2.2-3.1H179V21h-2.6V9.7h4.9c1 0 1.9.2 2.6.5.7.3 1.3.8 1.7 1.4.4.6.6 1.4.6 2.2 0 .8-.2 1.6-.6 2.2-.4.6-1 1-1.7 1.4l2.5 3.6h-2.8zm0-7.2c0-.6-.2-1.1-.7-1.5-.4-.3-1-.5-1.7-.5h-2.2v4h2.2c.7 0 1.3-.2 1.7-.5.5-.4.7-.9.7-1.5z"
  />
  <path
    fill="#3F80F3"
    d="M17.2 3.5L11.5 0 5.7 3.5 0 7v21.6L5.8 32v-9.9l5.7 3.5 5.8-3.5 5.7-3.5V7l-5.8-3.5zm-5.7 16.3l-5.8-3.5v-5.8L11.5 7l5.7 3.5v5.8l-5.7 3.5z"
  />
</svg>