<svg width="800" height="800" viewBox="0 0 800 800" fill="none" xmlns="http://www.w3.org/2000/svg">
<path d="M720 0H80C35.8172 0 0 35.8172 0 80V720C0 764.183 35.8172 800 80 800H720C764.183 800 800 764.183 800 720V80C800 35.8172 764.183 0 720 0Z" fill="#498AFD"/>
<path d="M483.188 193.15L400 142L316.813 193.15L233.625 244.3V329.55V414.8V559.725L316.813 610.875V465.95L400 517.1L483.188 465.95L566.375 414.8V329.55V244.3L483.188 193.15ZM483.188 380.7L400 431.85L316.813 380.7V295.45L400 244.3L483.188 295.45V380.7Z" fill="white"/>
</svg>
